<svg id="Layer_1" data-name="Layer 1" xmlns="http://www.w3.org/2000/svg" viewBox="0 0 143.05 159.03"><defs><style>.cls-1{fill:#2fa76a;}.cls-1,.cls-2,.cls-3{fill-rule:evenodd;}.cls-2,.cls-4{fill:#093;}.cls-3,.cls-5{fill:#86ab0e;}</style></defs><path class="cls-1" d="M240.16,66.13,228.1,73.2l-12.12-7-12.12-7-.05-14.08-.05-14.06L215.83,24l12-7.07,12.13,7,12.12,7,0,14.06.05,14.06-12.07,7.08ZM211.65,74l16.78,9.68,16.72-9.79,16.72-9.8-.07-19.47-.07-19.48L245,15.45,228.16,5.76l-16.71,9.8-16.72,9.79.06,19.48.07,19.48Z" transform="translate(-156.62 -5.76)"/><path class="cls-2" d="M277.94,132.44l-12.08,7.08-12.12-7-12.12-7-.05-14.06,0-14.06,12.07-7.08,12.07-7.06,12.12,7,12.12,7,0,14.06.05,14.07Zm-28.53,7.86L266.2,150l16.69-9.8,16.78-9.79-.07-19.48-.06-19.48-16.78-9.68L266,72.09l-16.72,9.79-16.71,9.8v19.47l.06,19.47Z" transform="translate(-156.62 -5.76)"/><path class="cls-3" d="M202.05,132.38,190,139.45l-12.12-7-12.12-7-.05-14.07,0-14.06,12.12-7.07,12.06-7.07,12.12,7,12.12,7v14.07l.05,14.06-12.07,7.07Zm-28.52,7.87,16.79,9.67,16.72-9.8,16.71-9.79-.06-19.47-.07-19.47L206.84,81.7,190.06,72l-16.72,9.8-16.72,9.79.07,19.48.06,19.47Z" transform="translate(-156.62 -5.76)"/><ellipse class="cls-4" cx="125.64" cy="50.59" rx="13.51" ry="13.62"/><path class="cls-1" d="M173.06,71.12a13.63,13.63,0,1,0-13.51-13.74v.12A13.58,13.58,0,0,0,173.06,71.12Z" transform="translate(-156.62 -5.76)"/><ellipse class="cls-5" cx="71.83" cy="145.41" rx="13.51" ry="13.62"/></svg>