<svg id="Layer_1" data-name="Layer 1" xmlns="http://www.w3.org/2000/svg" viewBox="0 0 439.5 170.56"><defs><style>.cls-1{fill:#2fa76a;}.cls-1,.cls-2,.cls-3,.cls-6{fill-rule:evenodd;}.cls-2,.cls-4{fill:#093;}.cls-3,.cls-5{fill:#86ab0e;}.cls-6{fill:#727376;}</style></defs><path class="cls-1" d="M266.18,309.51l-12.94,7.58-13-7.49-13-7.5L227.19,287l-.05-15.08,12.94-7.58L253,256.76l13,7.5,13,7.5.05,15.08.05,15.08-12.95,7.59Zm-30.58,8.43,18,10.38,17.93-10.5,17.93-10.51-.07-20.88-.08-20.89-18-10.38-18-10.39-17.93,10.51-17.93,10.5.07,20.89.07,20.89Z" transform="translate(-176.58 -244.77)"/><path class="cls-2" d="M306.69,380.63l-12.95,7.59-13-7.5-13-7.5-.05-15.08-.05-15.08,12.95-7.59,12.94-7.58,13,7.49,13,7.5.05,15.08.05,15.09-12.94,7.58Zm-30.59,8.43,18,10.39L312,388.94,330,378.44l-.07-20.89-.07-20.89-18-10.38-18-10.38-17.93,10.5L258,336.91,258,357.8l.07,20.88Z" transform="translate(-176.58 -244.77)"/><path class="cls-3" d="M225.3,380.56l-12.94,7.59-13-7.5-13-7.49-.05-15.09L186.26,343l13-7.59,12.94-7.58,13,7.5,13,7.49,0,15.09.05,15.08-12.95,7.58ZM194.72,389l18,10.38,17.93-10.51,17.93-10.5-.07-20.89-.07-20.88-18-10.39-18-10.38-17.93,10.51-17.93,10.5.07,20.89.07,20.88Z" transform="translate(-176.58 -244.77)"/><ellipse class="cls-4" cx="134.75" cy="54.26" rx="14.49" ry="14.61"/><path class="cls-1" d="M194.21,314.86a14.61,14.61,0,1,0-14.49-14.6A14.57,14.57,0,0,0,194.21,314.86Z" transform="translate(-176.58 -244.77)"/><ellipse class="cls-5" cx="77.04" cy="155.95" rx="14.49" ry="14.61"/><polygon class="cls-6" points="385.84 37.09 383.9 53.56 412.45 53.56 379.19 85.45 377.39 100.76 433.62 100.76 435.55 84.37 404.11 84.37 437.72 52.26 439.5 37.09 385.84 37.09"/><path class="cls-6" d="M551.34,313.74q1.83-15.57-6-24.56t-23.1-9q-15.35,0-25.29,9t-11.77,24.56q-1.81,15.52,6,24.54t23.17,9q15.3,0,25.22-9t11.75-24.54Zm-35.07,17.53q-6.45,0-9-4.23c-1.69-2.84-2.18-7.25-1.47-13.28s2.24-10.48,4.59-13.32,5.68-4.23,10-4.23,7.25,1.4,8.91,4.22,2.13,7.24,1.42,13.33-2.22,10.49-4.55,13.29S520.55,331.27,516.27,331.27Z" transform="translate(-176.58 -244.77)"/><polygon class="cls-6" points="282.65 100.76 288.16 53.82 306.49 53.82 308.46 37.09 251.34 37.09 249.38 53.82 267.71 53.82 262.2 100.76 282.65 100.76"/><path class="cls-6" d="M422.74,345.53,407.8,281.86H387.08l-29.87,63.67h20.11l3.45-8.41h20.28l1.41,8.41Zm-27.6-43.83,3.76,22.05H386.06Z" transform="translate(-176.58 -244.77)"/><path class="cls-6" d="M533.14,367.05a3.32,3.32,0,0,0,.93,3c.78.7,2.53,1.34,5.27,1.94l.29.07c1.45.32,2.13.82,2,1.49a1.23,1.23,0,0,1-.61.93,3,3,0,0,1-1.48.31,1.8,1.8,0,0,1-1.41-.47,1.72,1.72,0,0,1-.33-1.42h-5.79a4.35,4.35,0,0,0,1.64,3.95,9.06,9.06,0,0,0,5.4,1.31,11.82,11.82,0,0,0,6.09-1.31,5,5,0,0,0,2.47-3.9,3.49,3.49,0,0,0-.87-3.1c-.74-.7-2.43-1.37-5.08-2l-.79-.17c-1.32-.28-1.95-.72-1.88-1.32a1,1,0,0,1,.51-.78,2.34,2.34,0,0,1,1.23-.27,1.92,1.92,0,0,1,1.26.4,1.35,1.35,0,0,1,.46,1.07h5.37a4,4,0,0,0-1.71-3.53,8.84,8.84,0,0,0-5-1.19,10.61,10.61,0,0,0-5.65,1.27A4.75,4.75,0,0,0,533.14,367.05Z" transform="translate(-176.58 -244.77)"/><path class="cls-6" d="M530.55,371.11c.33-2.82-.17-5-1.5-6.61s-3.32-2.39-6-2.39a9.75,9.75,0,0,0-6.56,2.19,8.82,8.82,0,0,0-3,6,6.85,6.85,0,0,0,1.59,5.78A7.7,7.7,0,0,0,521,378.2a11.45,11.45,0,0,0,5.7-1.27,6.81,6.81,0,0,0,3.16-3.71h-5.71a1.89,1.89,0,0,1-.89.92,3.15,3.15,0,0,1-1.49.33,2.32,2.32,0,0,1-1.92-.78,3.05,3.05,0,0,1-.5-2.21h11.2l0-.36ZM525,368.47h-5.32a3.55,3.55,0,0,1,1-2.06,2.7,2.7,0,0,1,1.94-.74,2.31,2.31,0,0,1,1.86.7A3,3,0,0,1,525,368.47Z" transform="translate(-176.58 -244.77)"/><polygon class="cls-6" points="431.48 126.78 430.76 132.88 436.75 132.88 437.47 126.78 431.48 126.78"/><path class="cls-6" d="M602.63,376.49a7.13,7.13,0,0,0,2.92-4.68h-6a3,3,0,0,1-.89,1.67A2.53,2.53,0,0,1,597,374a1.78,1.78,0,0,1-1.76-.94,5.41,5.41,0,0,1-.24-3,6,6,0,0,1,1-2.94,2.4,2.4,0,0,1,2-.93,2,2,0,0,1,1.51.51,2.15,2.15,0,0,1,.45,1.58h6a5.09,5.09,0,0,0-1.78-4.56,8.51,8.51,0,0,0-5.62-1.69,9.77,9.77,0,0,0-6.53,2.15,8.66,8.66,0,0,0-3,5.88,6.93,6.93,0,0,0,1.63,5.89q2.05,2.18,6,2.17A9.94,9.94,0,0,0,602.63,376.49Z" transform="translate(-176.58 -244.77)"/><path class="cls-6" d="M585.77,377.66l.92-7.8a17.51,17.51,0,0,0,.16-3.82,4.13,4.13,0,0,0-.73-2,3.86,3.86,0,0,0-1.66-1.35,5.73,5.73,0,0,0-2.39-.46,7.06,7.06,0,0,0-3,.64,8.27,8.27,0,0,0-2.57,2l.25-2.2h-5.42l-1.76,15h6l.91-7.75a4.22,4.22,0,0,1,.82-2.28,2.22,2.22,0,0,1,1.77-.74,1.59,1.59,0,0,1,1.5.64,4.11,4.11,0,0,1,.18,2.36l-.91,7.77Z" transform="translate(-176.58 -244.77)"/><polygon class="cls-6" points="389.33 132.88 391.71 112.56 385.07 112.56 382.68 132.88 389.33 132.88"/><polygon class="cls-6" points="335.39 116.35 335.89 112.05 329.87 112.05 329.37 116.35 335.39 116.35"/><polygon class="cls-6" points="335.21 117.88 329.19 117.88 327.43 132.88 333.45 132.88 335.21 117.88"/><path class="cls-6" d="M502.8,368.2l.69-5.95H503a5,5,0,0,0-5,3.13l.32-2.73h-5.5l-1.77,15h6l.72-6.16a3.77,3.77,0,0,1,1.15-2.55,4.1,4.1,0,0,1,2.75-.82l.58,0Z" transform="translate(-176.58 -244.77)"/><path class="cls-6" d="M489.39,370.14a7,7,0,0,0-1.56-5.88q-2-2.14-6-2.15a9.65,9.65,0,0,0-6.48,2.15,8.75,8.75,0,0,0-2.95,5.88A7,7,0,0,0,474,376q2,2.16,6,2.16a9.57,9.57,0,0,0,6.46-2.16,8.78,8.78,0,0,0,2.95-5.9Zm-10.71,3a5.58,5.58,0,0,1-.23-3,6.21,6.21,0,0,1,.93-3,2.32,2.32,0,0,1,2-.89,1.85,1.85,0,0,1,1.79.9,5.4,5.4,0,0,1,.24,3,6.24,6.24,0,0,1-.94,3,2.34,2.34,0,0,1-2,.92A1.79,1.79,0,0,1,478.68,373.13Z" transform="translate(-176.58 -244.77)"/><path class="cls-6" d="M471.26,366.1l.41-3.45h-2.8l.54-4.64h-5.93l-.55,4.64h-2.12l-.4,3.45h2.12l-.88,7.51c-.19,1.6.05,2.71.73,3.35s2,1,3.85,1l1.7,0,2-.11.51-4.32-.35,0h-.5a2.71,2.71,0,0,1-1.53-.31,1.08,1.08,0,0,1-.32-1.07l.7-6Z" transform="translate(-176.58 -244.77)"/><path class="cls-6" d="M457.94,367.6a6.1,6.1,0,0,0-.12-2.59,3.59,3.59,0,0,0-1.3-1.63,6.59,6.59,0,0,0-2.33-.92,15.3,15.3,0,0,0-3.37-.35,12.06,12.06,0,0,0-6.12,1.29,5,5,0,0,0-2.52,3.83H448a1.73,1.73,0,0,1,.71-1.13,2.53,2.53,0,0,1,1.46-.37,3.16,3.16,0,0,1,1.6.3.89.89,0,0,1,.41.94c-.09.77-1.09,1.26-3,1.46-.55.06-1,.11-1.31.16a12.43,12.43,0,0,0-5.35,1.54,4.45,4.45,0,0,0-1.75,3.29,4.07,4.07,0,0,0,1,3.53,5.14,5.14,0,0,0,3.78,1.25,9,9,0,0,0,3-.49,8.74,8.74,0,0,0,2.64-1.49l.21,1.44h6l0-.43a1.27,1.27,0,0,1-.42-.53A1.61,1.61,0,0,1,457,376l1-8.36Zm-8.65,4.07a23.9,23.9,0,0,0,2.36-.71,2.53,2.53,0,0,1,0,.28l-.05.48a3.36,3.36,0,0,1-.94,2.19,3.22,3.22,0,0,1-2.26.7,1.77,1.77,0,0,1-1.21-.36,1.07,1.07,0,0,1-.32-1C447,372.59,447.76,372.06,449.29,371.67Z" transform="translate(-176.58 -244.77)"/><path class="cls-6" d="M439.67,368.2l.69-5.95h-.53a5,5,0,0,0-5,3.13l.32-2.73H429.6l-1.76,15h6l.72-6.16a3.77,3.77,0,0,1,1.15-2.55,4.09,4.09,0,0,1,2.75-.82l.58,0Z" transform="translate(-176.58 -244.77)"/><path class="cls-6" d="M426.26,370.14a7,7,0,0,0-1.57-5.88q-2-2.14-6-2.15a9.65,9.65,0,0,0-6.48,2.15,8.75,8.75,0,0,0-2.95,5.88,7,7,0,0,0,1.58,5.9q2,2.16,6,2.16a9.59,9.59,0,0,0,6.46-2.16,8.78,8.78,0,0,0,2.95-5.9Zm-6.23-3a5.4,5.4,0,0,1,.24,3,6.24,6.24,0,0,1-.94,3,2.34,2.34,0,0,1-2,.92,1.79,1.79,0,0,1-1.77-.91,5.58,5.58,0,0,1-.23-3,6.21,6.21,0,0,1,.93-3,2.31,2.31,0,0,1,2-.89A1.85,1.85,0,0,1,420,367.17Z" transform="translate(-176.58 -244.77)"/><path class="cls-6" d="M407.63,370.22a8.21,8.21,0,0,0-1.11-5.81,5.11,5.11,0,0,0-4.48-2.18,6,6,0,0,0-2.39.5,7,7,0,0,0-2.15,1.5l.81-6.89h-5.82l-2.38,20.32h5.28l.22-1.83a5.28,5.28,0,0,0,2,1.78,5.76,5.76,0,0,0,2.66.59,6.46,6.46,0,0,0,4.93-2.19,9.92,9.92,0,0,0,2.46-5.79Zm-10.55,2.65a4.14,4.14,0,0,1-.35-2.55,5.16,5.16,0,0,1,.91-2.63,2.4,2.4,0,0,1,2-.86,1.86,1.86,0,0,1,1.74.85,4.4,4.4,0,0,1,.28,2.64,4.74,4.74,0,0,1-.94,2.55,2.35,2.35,0,0,1-1.89.92A1.85,1.85,0,0,1,397.08,372.87Z" transform="translate(-176.58 -244.77)"/><path class="cls-6" d="M387.84,367.6a5.92,5.92,0,0,0-.13-2.59,3.52,3.52,0,0,0-1.3-1.63,6.53,6.53,0,0,0-2.32-.92,15.33,15.33,0,0,0-3.38-.35,12,12,0,0,0-6.11,1.29,5,5,0,0,0-2.52,3.83h5.82a1.81,1.81,0,0,1,.71-1.13,2.54,2.54,0,0,1,1.47-.37,3.18,3.18,0,0,1,1.6.3.89.89,0,0,1,.41.94c-.09.77-1.09,1.26-3,1.46l-1.31.16a12.38,12.38,0,0,0-5.34,1.54,4.46,4.46,0,0,0-1.76,3.29,4.1,4.1,0,0,0,1,3.53,5.14,5.14,0,0,0,3.78,1.25,9,9,0,0,0,3-.49,8.74,8.74,0,0,0,2.64-1.49l.2,1.44h6l.05-.43a1.22,1.22,0,0,1-.43-.53,1.49,1.49,0,0,1-.07-.74l1-8.36Zm-8.65,4.07c1-.25,1.76-.49,2.36-.71a1.31,1.31,0,0,1,0,.28l-.05.48a3.36,3.36,0,0,1-.94,2.19,3.19,3.19,0,0,1-2.25.7,1.75,1.75,0,0,1-1.21-.36,1.07,1.07,0,0,1-.33-1C376.85,372.59,377.66,372.06,379.19,371.67Z" transform="translate(-176.58 -244.77)"/><polygon class="cls-6" points="183.46 127.49 185.21 112.56 178.68 112.56 176.29 132.88 191.7 132.88 192.33 127.49 183.46 127.49"/></svg>